<?xml version="1.0" encoding="iso-8859-1"?>
<!-- Generator: Adobe Illustrator 19.0.0, SVG Export Plug-In . SVG Version: 6.00 Build 0)  -->
<svg version="1.1" id="Layer_1" xmlns="http://www.w3.org/2000/svg" xmlns:xlink="http://www.w3.org/1999/xlink" x="0px" y="0px"
	 viewBox="0 0 512 512" style="enable-background:new 0 0 512 512;" xml:space="preserve">
<g transform="translate(1 1)">
	<g>
		<path d="M369.286,68.486V35.571C369.286,15.457,352.829-1,332.714-1H167.229c-20.114,0-35.657,16.457-35.657,36.571V69.4
			c-26.514,35.657-27.429,48.457-27.429,112.457c0,33.829,9.143,72.229,10.971,83.2c-5.486,21.029,5.486,42.971,26.514,50.286
			c7.455,2.236,14.909,2.648,21.868,1.237c1.582-0.242,3.135-0.57,4.651-0.995c0.107,16.367,11.047,31.784,27.423,37.243
			l1.829,0.914c8.485,2.611,17.432,2.412,25.518-0.236c1.808-0.5,3.644-1.043,5.567-1.592c1.3-0.65,2.558-1.382,3.779-2.174
			c3.89,18.918,21.107,33.26,41.021,33.26c8.229,0,16.457-2.743,22.857-7.314v94.171c0,22.857,18.286,41.143,41.143,41.143
			c22.857,0,41.143-18.286,41.143-41.143v-256c24.686-19.2,27.429-39.314,27.429-67.657v-0.914
			C405.857,106.886,379.343,77.629,369.286,68.486z M252.407,198.659c-12.904,16.678-22.632,32.143-26.664,42.627
			c-1.017,2.415-1.723,4.938-2.164,7.521c-1.706,8.942-0.37,17.784,3.432,25.232c3.212,7.563,8.186,14.413,14.275,19.361
			l-10.057,29.257c-1.829,5.486-5.486,10.057-10.971,12.8c-4.571,2.743-10.971,2.743-16.457,0.914l-1.829-0.914
			c-5.486-1.829-10.057-5.486-12.8-10.971c-0.297-0.594-0.556-1.189-0.792-1.783c-1.566-4.511-1.687-9.59-0.123-14.674l6.4-18.286
			l28.445-84.521l0.813-2.336c4.571-11.886,16.457-17.371,28.343-13.714l1.829,0.914c0.899,0,2.677,0.884,3.606,1.783
			C255.891,194.136,254.127,196.403,252.407,198.659z M210.2,188.257l-24.69,71.327l-8.411,24.181
			c-4.713,11.585-17.331,16.904-29.071,13.292c-11.886-3.657-18.286-16.457-13.714-29.257c0-0.899,0.22-1.799,0.336-2.698
			l31.664-91.473c1.829-5.486,6.4-10.057,11.886-12.8c2.743-1.829,6.4-2.743,10.057-2.743c2.743,0,4.571,0.914,8.229,0.914
			c5.486,1.829,10.057,6.4,12.8,11.886S212.029,182.771,210.2,188.257z M291.571,358.314c-4.571,3.657-10.057,6.4-16.457,6.4
			c-12.8,0-23.771-10.057-23.771-22.857V338.2l2.743-21.029c0-0.942-0.123-1.883-0.348-2.793l7.662-21.892
			c0.16-0.399,0.281-0.798,0.386-1.195c8.098-0.904,17.548-4.215,28.871-12.519c2.101-1.284,4.563-2.899,7.314-4.779v69.694
			C297.971,349.171,295.229,354.657,291.571,358.314z M337.286,492.714c-12.8,0-22.857-10.057-22.857-22.857V343.686
			c0-0.914,0-0.914,1.829-0.914v-77.714c0-1.362-0.226-2.61-0.649-3.718c13.528-10.002,29.504-22.261,44.535-33.683v242.201
			C360.143,482.657,350.086,492.714,337.286,492.714z M387.571,145.286c0,27.429-1.829,41.143-22.857,55.771l-0.914,0.914
			c-29.257,21.943-67.657,52.114-83.2,62.171c-14.629,9.143-26.514,11.886-33.829,6.4c-0.963-0.803-1.807-1.782-2.539-2.883
			c-2.699-6.336-3.428-13.514-1.118-19.06c4.571-10.971,17.371-30.171,34.743-51.2c1.063-1.417,1.709-2.971,1.948-4.557
			c20.593-24.338,43.644-46.677,54.738-51.215c4.571-1.829,6.4-7.314,4.571-11.886c-1.829-4.571-7.314-6.4-11.886-4.571
			c-13.321,5.709-36.542,27.758-57.688,52.36c-2.882-1.954-5.968-3.494-9.055-4.817l-1.829-0.914
			c-10.502-3.653-21.459-2.744-30.709,1.699c-2.893-13.845-12.848-26.072-26.891-30.956c-10.057-3.657-21.029-2.743-31.086,1.829
			c-10.057,5.486-17.371,13.714-21.029,23.771l-21.562,62.29c-2.607-14.644-4.953-32.33-4.953-48.575
			c0-64,0.914-71.314,25.6-104.229c1.829-1.829,1.829-4.571,1.829-6.4V35.571c0-10.057,8.229-18.286,17.371-18.286h165.486
			c10.057,0,18.286,8.229,18.286,18.286v36.571c0,2.743,0.914,5.486,3.657,7.314c0,0,32,27.429,32.914,64.914V145.286z"/>
	</g>
</g>
<g>
</g>
<g>
</g>
<g>
</g>
<g>
</g>
<g>
</g>
<g>
</g>
<g>
</g>
<g>
</g>
<g>
</g>
<g>
</g>
<g>
</g>
<g>
</g>
<g>
</g>
<g>
</g>
<g>
</g>
</svg>
